<?xml version="1.0" encoding="UTF-8"?>
<svg width="180px" height="60px" viewBox="0 0 180 60" version="1.1" xmlns="http://www.w3.org/2000/svg">
    <g id="Logo" stroke="none" stroke-width="1" fill="none" fill-rule="evenodd">
        <path d="M32.5,10 C44.9264069,10 55,20.0735931 55,32.5 C55,44.9264069 44.9264069,55 32.5,55 C20.0735931,55 10,44.9264069 10,32.5 C10,20.0735931 20.0735931,10 32.5,10 Z" id="Circle" fill="#4285F4"></path>
        <path d="M32.5,18 C40.5081289,18 47,24.4918711 47,32.5 C47,40.5081289 40.5081289,47 32.5,47 C24.4918711,47 18,40.5081289 18,32.5 C18,24.4918711 24.4918711,18 32.5,18 Z" id="Inner-Circle" fill="#FFFFFF"></path>
        <path d="M32.5,25 C36.6421356,25 40,28.3578644 40,32.5 C40,36.6421356 36.6421356,40 32.5,40 C28.3578644,40 25,36.6421356 25,32.5 C25,28.3578644 28.3578644,25 32.5,25 Z" id="Core" fill="#34A853"></path>
        <text id="Gr8Apps.AI" font-family="Arial-BoldMT, Arial" font-size="20" font-weight="bold" fill="#202124">
            <tspan x="65" y="38">Gr8Apps.AI</tspan>
        </text>
    </g>
</svg>
